<svg width="30" height="30" viewBox="0 0 30 30" fill="none" xmlns="http://www.w3.org/2000/svg">
<mask id="mask0_35_64" style="mask-type:luminance" maskUnits="userSpaceOnUse" x="6" y="6" width="18" height="17">
<path d="M6 6H24V23H6V6Z" fill="white"/>
</mask>
<g mask="url(#mask0_35_64)">
<path d="M-0.538147 -1.28571H29.7553V37.8834H-0.538147V-1.28571Z" fill="white"/>
<path d="M-0.538147 -1.28571H29.7553V30.0496H-0.538147V-1.28571Z" fill="white"/>
<path d="M-0.538147 -1.28571H29.7553V30.0496H-0.538147V-1.28571Z" fill="black"/>
</g>
<mask id="mask1_35_64" style="mask-type:luminance" maskUnits="userSpaceOnUse" x="0" y="0" width="30" height="30">
<path d="M0 0H30V30H0V0Z" fill="white"/>
</mask>
<g mask="url(#mask1_35_64)">
<path d="M14.9848 -0.0101318C6.70531 -0.0101318 -0.0101318 6.70531 -0.0101318 14.9848C-0.0101318 23.2694 6.70531 29.9798 14.9848 29.9798C23.2694 29.9798 29.9798 23.2694 29.9798 14.9848C29.9798 6.70531 23.2694 -0.0101318 14.9848 -0.0101318ZM19.556 16.004C19.4803 16.0746 19.4046 16.1352 19.3188 16.1907L13.6932 21.8163C13.4157 22.0938 13.0575 22.23 12.6993 22.23C12.341 22.23 11.9828 22.0938 11.7104 21.8163C11.1654 21.2714 11.1654 20.3834 11.7104 19.8385L16.559 14.9899L11.7356 10.1614C11.1907 9.61651 11.1907 8.72852 11.7356 8.18361C12.2805 7.63871 13.1685 7.63871 13.7134 8.18361L19.3188 13.784C19.4046 13.8395 19.4803 13.9001 19.556 13.9757C19.8335 14.2532 19.9697 14.6216 19.9646 14.9899C19.9697 15.3531 19.8335 15.7215 19.556 16.004Z" fill="#FEFEFE"/>
</g>
</svg>
