<svg xmlns="http://www.w3.org/2000/svg" xmlns:xlink="http://www.w3.org/1999/xlink" width="40" zoomAndPan="magnify" viewBox="0 0 30 30.000001" height="40" preserveAspectRatio="xMidYMid meet" version="1.0"><defs><clipPath id="c0e12c6014"><path d="M 0.484375 0 L 29.515625 0 L 29.515625 29.03125 L 0.484375 29.03125 Z M 0.484375 0 " clip-rule="nonzero"/></clipPath><clipPath id="96a5dd5a0b"><path d="M 3.382812 2.898438 L 26.609375 2.898438 L 26.609375 26.125 L 3.382812 26.125 Z M 3.382812 2.898438 " clip-rule="nonzero"/></clipPath></defs><g clip-path="url(#c0e12c6014)"><path fill="#ffffff" d="M 0.484375 0 L 29.515625 0 L 29.515625 36.289062 L 0.484375 36.289062 Z M 0.484375 0 " fill-opacity="1" fill-rule="nonzero"/><path fill="#ffffff" d="M 0.484375 0 L 29.515625 0 L 29.515625 29.03125 L 0.484375 29.03125 Z M 0.484375 0 " fill-opacity="1" fill-rule="nonzero"/><path fill="#000000" d="M 0.484375 0 L 29.515625 0 L 29.515625 29.03125 L 0.484375 29.03125 Z M 0.484375 0 " fill-opacity="1" fill-rule="nonzero"/></g><g clip-path="url(#96a5dd5a0b)"><path fill="#fefefe" d="M 14.984375 2.890625 C 8.574219 2.890625 3.375 8.089844 3.375 14.5 C 3.375 20.914062 8.574219 26.109375 14.984375 26.109375 C 21.398438 26.109375 26.59375 20.914062 26.59375 14.5 C 26.59375 8.089844 21.398438 2.890625 14.984375 2.890625 Z M 18.523438 15.289062 C 18.464844 15.34375 18.40625 15.390625 18.339844 15.433594 L 13.984375 19.789062 C 13.769531 20.003906 13.492188 20.109375 13.214844 20.109375 C 12.9375 20.109375 12.660156 20.003906 12.449219 19.789062 C 12.027344 19.367188 12.027344 18.679688 12.449219 18.257812 L 16.203125 14.503906 L 12.46875 10.765625 C 12.046875 10.34375 12.046875 9.65625 12.46875 9.234375 C 12.890625 8.8125 13.578125 8.8125 14 9.234375 L 18.339844 13.570312 C 18.40625 13.613281 18.464844 13.660156 18.523438 13.71875 C 18.738281 13.933594 18.84375 14.21875 18.839844 14.503906 C 18.84375 14.785156 18.738281 15.070312 18.523438 15.289062 Z M 18.523438 15.289062 " fill-opacity="1" fill-rule="nonzero"/></g></svg>