<svg xmlns="http://www.w3.org/2000/svg" xmlns:xlink="http://www.w3.org/1999/xlink" width="40" zoomAndPan="magnify" viewBox="0 0 30 30.000001" height="40" preserveAspectRatio="xMidYMid meet" version="1.0"><defs><clipPath id="60d503a9cd"><path d="M 0.484375 0 L 29.515625 0 L 29.515625 29.03125 L 0.484375 29.03125 Z M 0.484375 0 " clip-rule="nonzero"/></clipPath><clipPath id="c90eaa8588"><path d="M 3.386719 4 L 26.613281 4 L 26.613281 26.097656 L 3.386719 26.097656 Z M 3.386719 4 " clip-rule="nonzero"/></clipPath><clipPath id="0ad4323c7d"><path d="M 7 2.871094 L 10 2.871094 L 10 8 L 7 8 Z M 7 2.871094 " clip-rule="nonzero"/></clipPath><clipPath id="0bb12e1a50"><path d="M 20 2.871094 L 23 2.871094 L 23 8 L 20 8 Z M 20 2.871094 " clip-rule="nonzero"/></clipPath></defs><g clip-path="url(#60d503a9cd)"><path fill="#ffffff" d="M 0.484375 0 L 29.515625 0 L 29.515625 36.289062 L 0.484375 36.289062 Z M 0.484375 0 " fill-opacity="1" fill-rule="nonzero"/><path fill="#ffffff" d="M 0.484375 0 L 29.515625 0 L 29.515625 29.03125 L 0.484375 29.03125 Z M 0.484375 0 " fill-opacity="1" fill-rule="nonzero"/><path fill="#000000" d="M 0.484375 0 L 29.515625 0 L 29.515625 29.03125 L 0.484375 29.03125 Z M 0.484375 0 " fill-opacity="1" fill-rule="nonzero"/></g><g clip-path="url(#c90eaa8588)"><path fill="#e6c357" d="M 24.253906 4.613281 L 22.8125 4.613281 L 22.8125 6.589844 C 22.8125 7.527344 22.070312 8.253906 21.167969 8.253906 L 21.066406 8.253906 C 20.140625 8.253906 19.421875 7.5 19.421875 6.589844 L 19.421875 4.613281 L 10.425781 4.613281 L 10.425781 6.589844 C 10.425781 7.527344 9.679688 8.253906 8.78125 8.253906 L 8.675781 8.253906 C 7.75 8.253906 7.03125 7.5 7.03125 6.589844 L 7.03125 4.613281 L 5.746094 4.613281 C 4.460938 4.613281 3.433594 5.652344 3.433594 6.953125 L 3.433594 23.753906 C 3.433594 25.054688 4.460938 26.097656 5.746094 26.097656 L 20.9375 26.097656 L 22.015625 26.070312 C 22.144531 26.019531 22.273438 25.964844 22.378906 25.863281 L 26.105469 21.855469 C 26.15625 21.804688 26.179688 21.753906 26.234375 21.699219 C 26.4375 21.441406 26.542969 21.128906 26.542969 20.816406 L 26.542969 6.953125 C 26.566406 5.652344 25.539062 4.613281 24.253906 4.613281 Z M 21.992188 23.859375 L 21.992188 21.832031 C 21.992188 21.441406 22.300781 21.15625 22.660156 21.15625 L 24.535156 21.15625 Z M 24.921875 19.488281 L 22.660156 19.488281 C 21.375 19.488281 20.347656 20.53125 20.347656 21.832031 L 20.347656 24.457031 L 5.746094 24.457031 C 5.359375 24.457031 5.078125 24.144531 5.078125 23.78125 L 5.078125 10.648438 L 24.949219 10.648438 L 24.949219 19.488281 Z M 24.921875 19.488281 " fill-opacity="1" fill-rule="nonzero"/></g><g clip-path="url(#0ad4323c7d)"><path fill="#e6c357" d="M 8.753906 7.527344 C 9.269531 7.527344 9.703125 7.082031 9.703125 6.5625 L 9.703125 3.832031 C 9.703125 3.3125 9.269531 2.871094 8.753906 2.871094 L 8.652344 2.871094 C 8.136719 2.871094 7.699219 3.3125 7.699219 3.832031 L 7.699219 6.589844 C 7.699219 7.109375 8.136719 7.550781 8.652344 7.550781 L 8.753906 7.550781 Z M 8.753906 7.527344 " fill-opacity="1" fill-rule="nonzero"/></g><g clip-path="url(#0bb12e1a50)"><path fill="#e6c357" d="M 21.167969 7.527344 C 21.683594 7.527344 22.121094 7.082031 22.121094 6.5625 L 22.121094 3.832031 C 22.121094 3.3125 21.683594 2.871094 21.167969 2.871094 L 21.066406 2.871094 C 20.550781 2.871094 20.113281 3.3125 20.113281 3.832031 L 20.113281 6.589844 C 20.113281 7.109375 20.550781 7.550781 21.066406 7.550781 L 21.167969 7.550781 Z M 21.167969 7.527344 " fill-opacity="1" fill-rule="nonzero"/></g><path fill="#e6c357" d="M 7.597656 12.9375 L 9.5 12.9375 L 9.5 14.859375 L 7.597656 14.859375 Z M 7.597656 12.9375 " fill-opacity="1" fill-rule="nonzero"/><path fill="#e6c357" d="M 11.914062 12.9375 L 13.816406 12.9375 L 13.816406 14.859375 L 11.914062 14.859375 Z M 11.914062 12.9375 " fill-opacity="1" fill-rule="nonzero"/><path fill="#e6c357" d="M 16.234375 12.9375 L 18.136719 12.9375 L 18.136719 14.859375 L 16.234375 14.859375 Z M 16.234375 12.9375 " fill-opacity="1" fill-rule="nonzero"/><path fill="#e6c357" d="M 20.527344 12.9375 L 22.429688 12.9375 L 22.429688 14.859375 L 20.527344 14.859375 Z M 20.527344 12.9375 " fill-opacity="1" fill-rule="nonzero"/><path fill="#e6c357" d="M 7.597656 16.628906 L 9.5 16.628906 L 9.5 18.554688 L 7.597656 18.554688 Z M 7.597656 16.628906 " fill-opacity="1" fill-rule="nonzero"/><path fill="#e6c357" d="M 11.914062 16.628906 L 13.816406 16.628906 L 13.816406 18.554688 L 11.914062 18.554688 Z M 11.914062 16.628906 " fill-opacity="1" fill-rule="nonzero"/><path fill="#e6c357" d="M 16.234375 16.628906 L 18.136719 16.628906 L 18.136719 18.554688 L 16.234375 18.554688 Z M 16.234375 16.628906 " fill-opacity="1" fill-rule="nonzero"/><path fill="#e6c357" d="M 20.527344 16.628906 L 22.429688 16.628906 L 22.429688 18.554688 L 20.527344 18.554688 Z M 20.527344 16.628906 " fill-opacity="1" fill-rule="nonzero"/><path fill="#e6c357" d="M 7.597656 20.347656 L 9.5 20.347656 L 9.5 22.273438 L 7.597656 22.273438 Z M 7.597656 20.347656 " fill-opacity="1" fill-rule="nonzero"/><path fill="#e6c357" d="M 11.914062 20.347656 L 13.816406 20.347656 L 13.816406 22.273438 L 11.914062 22.273438 Z M 11.914062 20.347656 " fill-opacity="1" fill-rule="nonzero"/><path fill="#e6c357" d="M 16.234375 20.347656 L 18.136719 20.347656 L 18.136719 22.273438 L 16.234375 22.273438 Z M 16.234375 20.347656 " fill-opacity="1" fill-rule="nonzero"/></svg>